<svg width="20" height="20" viewBox="0 0 20 20" fill="none" xmlns="http://www.w3.org/2000/svg">
<path d="M13.077 9.99941C13.077 10.1865 12.996 10.3659 12.8517 10.4982C12.7075 10.6304 12.5118 10.7047 12.3078 10.7047C12.1038 10.7047 11.9081 10.6304 11.7639 10.4982C11.6196 10.3659 11.5386 10.1865 11.5386 9.99941C11.5386 9.81234 11.6196 9.63293 11.7639 9.50066C11.9081 9.36838 12.1038 9.29407 12.3078 9.29407C12.5118 9.29407 12.7075 9.36838 12.8517 9.50066C12.996 9.63293 13.077 9.81234 13.077 9.99941ZM9.38165 1.55226C9.27009 1.53181 9.15498 1.53431 9.0446 1.55957C8.93422 1.58483 8.83133 1.63222 8.74334 1.69834C8.65534 1.76445 8.58444 1.84764 8.53573 1.94191C8.48702 2.03617 8.46172 2.13917 8.46165 2.24349V17.7567C8.46172 17.861 8.48702 17.9641 8.53573 18.0583C8.58444 18.1526 8.65534 18.2358 8.74334 18.3019C8.83133 18.368 8.93422 18.4154 9.0446 18.4407C9.15498 18.4659 9.27009 18.4684 9.38165 18.448L17.074 17.0373C17.2483 17.0053 17.4051 16.919 17.5179 16.793C17.6306 16.667 17.6923 16.5091 17.6924 16.3461V3.65417C17.6923 3.49117 17.6306 3.33324 17.5179 3.20722C17.4051 3.0812 17.2483 2.99488 17.074 2.96293L9.38165 1.55226ZM10.0001 16.8962V3.104L16.154 4.23255V15.7677L10.0001 16.8962ZM6.92318 17.0514V15.6407H3.84626V4.35951H6.92318V2.94883H3.07703C2.87302 2.94883 2.67736 3.02314 2.5331 3.15542C2.38884 3.28769 2.3078 3.4671 2.3078 3.65417V16.3461C2.3078 16.5331 2.38884 16.7125 2.5331 16.8448C2.67736 16.9771 2.87302 17.0514 3.07703 17.0514H6.92318Z" fill="white"/>
</svg>
